<svg width="44" height="44" viewBox="0 0 44 44" fill="none" xmlns="http://www.w3.org/2000/svg">
<g id="Frame 42908" opacity="0.1">
<g clip-path="url(#clip0_534_6322)">
<path id="Vector" d="M36 2L8 2C4.68629 2 2 4.68629 2 8L2 36C2 39.3137 4.68629 42 8 42L36 42C39.3137 42 42 39.3137 42 36L42 8C42 4.68629 39.3137 2 36 2Z" fill="#D43377"/>
<g id="Group">
<path id="Vector_2" d="M26.7807 12.3735L16.6463 12.3735C13.5279 12.3735 11 14.9015 11 18.0198L11 28.1542C11 31.2726 13.5279 33.8005 16.6463 33.8005L26.7807 33.8005C29.8991 33.8005 32.427 31.2726 32.427 28.1542L32.427 18.0198C32.427 14.9015 29.8991 12.3735 26.7807 12.3735Z" stroke="white" stroke-width="2.0664"/>
<path id="Vector_3" d="M21.9948 28.3631C24.7534 28.3631 26.9896 26.1269 26.9896 23.3683C26.9896 20.6098 24.7534 18.3735 21.9948 18.3735C19.2363 18.3735 17 20.6098 17 23.3683C17 26.1269 19.2363 28.3631 21.9948 28.3631Z" stroke="white" stroke-width="2.0664"/>
</g>
</g>
<rect x="1" y="1" width="42" height="42" rx="21" stroke="#EDF1F7" stroke-width="2"/>
</g>
<defs>
<clipPath id="clip0_534_6322">
<rect x="2" y="2" width="40" height="40" rx="20" fill="white"/>
</clipPath>
</defs>
</svg>
