<svg width="44" height="44" viewBox="0 0 44 44" fill="none" xmlns="http://www.w3.org/2000/svg">
<g id="twitter logo" opacity="0.1">
<g clip-path="url(#clip0_534_6327)">
<g id="Group">
<path id="Vector" d="M22.0003 41.9996C33.0459 41.9996 42.0001 33.0454 42.0001 21.9998C42.0001 10.9542 33.0459 2 22.0003 2C10.9547 2 2.00049 10.9542 2.00049 21.9998C2.00049 33.0454 10.9547 41.9996 22.0003 41.9996Z" fill="#55ACEE"/>
<g id="Group_2">
<path id="Vector_2" d="M34.2509 16.3731C33.3938 16.7532 32.4719 17.0102 31.505 17.125C32.4922 16.5336 33.2498 15.5977 33.6074 14.4807C32.6836 15.0287 31.6601 15.4262 30.5716 15.6405C29.6996 14.7118 28.4571 14.1313 27.0813 14.1313C24.4417 14.1313 22.3008 16.2722 22.3008 18.9119C22.3008 19.2866 22.3432 19.6513 22.4252 20.0014C18.4522 19.8021 14.9295 17.899 12.5715 15.0059C12.1601 15.7118 11.9241 16.5336 11.9241 17.4095C11.9241 19.0677 12.7686 20.5315 14.0507 21.3886C13.2674 21.364 12.5298 21.149 11.8856 20.79C11.8852 20.8103 11.8852 20.8306 11.8852 20.8506C11.8852 23.1669 13.5337 25.0988 15.7202 25.5377C15.3195 25.6475 14.8963 25.7056 14.461 25.7056C14.1523 25.7056 13.8532 25.676 13.5615 25.6204C14.1698 27.5192 15.9349 28.9014 18.0273 28.9403C16.3909 30.2227 14.3298 30.9867 12.0895 30.9867C11.7045 30.9867 11.323 30.9642 10.9497 30.9197C13.0642 32.2766 15.5776 33.0677 18.2772 33.0677C27.0703 33.0677 31.879 25.7834 31.879 19.4655C31.879 19.2584 31.8743 19.052 31.8651 18.8473C32.7998 18.1735 33.6102 17.3318 34.2509 16.3731Z" fill="#F1F2F2"/>
</g>
</g>
<g id="Group_3">
<path id="Vector_3" d="M22.0003 41.9996C33.0459 41.9996 42.0001 33.0454 42.0001 21.9998C42.0001 10.9542 33.0459 2 22.0003 2C10.9547 2 2.00049 10.9542 2.00049 21.9998C2.00049 33.0454 10.9547 41.9996 22.0003 41.9996Z" fill="#55ACEE"/>
<g id="Group_4">
<path id="Vector_4" d="M34.2509 16.3731C33.3938 16.7532 32.4719 17.0102 31.505 17.125C32.4922 16.5336 33.2498 15.5977 33.6074 14.4807C32.6836 15.0287 31.6601 15.4262 30.5716 15.6405C29.6996 14.7118 28.4571 14.1313 27.0813 14.1313C24.4417 14.1313 22.3008 16.2722 22.3008 18.9119C22.3008 19.2866 22.3432 19.6513 22.4252 20.0014C18.4522 19.8021 14.9295 17.899 12.5715 15.0059C12.1601 15.7118 11.9241 16.5336 11.9241 17.4095C11.9241 19.0677 12.7686 20.5315 14.0507 21.3886C13.2674 21.364 12.5298 21.149 11.8856 20.79C11.8852 20.8103 11.8852 20.8306 11.8852 20.8506C11.8852 23.1669 13.5337 25.0988 15.7202 25.5377C15.3195 25.6475 14.8963 25.7056 14.461 25.7056C14.1523 25.7056 13.8532 25.676 13.5615 25.6204C14.1698 27.5192 15.9349 28.9014 18.0273 28.9403C16.3909 30.2227 14.3298 30.9867 12.0895 30.9867C11.7045 30.9867 11.323 30.9642 10.9497 30.9197C13.0642 32.2766 15.5776 33.0677 18.2772 33.0677C27.0703 33.0677 31.879 25.7834 31.879 19.4655C31.879 19.2584 31.8743 19.052 31.8651 18.8473C32.7998 18.1735 33.6102 17.3318 34.2509 16.3731Z" fill="#F1F2F2"/>
</g>
</g>
</g>
<rect x="1" y="1" width="42" height="42" rx="21" stroke="#EDF1F7" stroke-width="2"/>
</g>
<defs>
<clipPath id="clip0_534_6327">
<rect x="2" y="2" width="40" height="40" rx="20" fill="white"/>
</clipPath>
</defs>
</svg>
