<svg width="19" height="18" viewBox="0 0 19 18" fill="none" xmlns="http://www.w3.org/2000/svg">
<path d="M10.25 9C10.25 8.58579 9.91421 8.25 9.5 8.25C9.08579 8.25 8.75 8.58579 8.75 9C8.75 9.41421 9.08579 9.75 9.5 9.75C9.91421 9.75 10.25 9.41421 10.25 9Z" stroke="#2E2E2E" stroke-width="1.5" stroke-linecap="round" stroke-linejoin="round"/>
<path d="M5 9C5 8.58579 4.66421 8.25 4.25 8.25C3.83579 8.25 3.5 8.58579 3.5 9C3.5 9.41421 3.83579 9.75 4.25 9.75C4.66421 9.75 5 9.41421 5 9Z" stroke="#2E2E2E" stroke-width="1.5" stroke-linecap="round" stroke-linejoin="round"/>
<path d="M15.5 9C15.5 8.58579 15.1642 8.25 14.75 8.25C14.3358 8.25 14 8.58579 14 9C14 9.41421 14.3358 9.75 14.75 9.75C15.1642 9.75 15.5 9.41421 15.5 9Z" stroke="#2E2E2E" stroke-width="1.5" stroke-linecap="round" stroke-linejoin="round"/>
</svg>
