<svg width="22" height="22" viewBox="0 0 22 22" fill="none" xmlns="http://www.w3.org/2000/svg">
<path d="M8.25001 7.32828C9.26001 7.32828 10.0788 6.50952 10.0788 5.49953C10.0788 4.48954 9.26001 3.67078 8.25001 3.67078C7.24002 3.67078 6.42126 4.48954 6.42126 5.49953C6.42126 6.50952 7.24002 7.32828 8.25001 7.32828Z" fill="#284F60"/>
<path d="M13.75 7.32828C14.76 7.32828 15.5787 6.50952 15.5787 5.49953C15.5787 4.48954 14.76 3.67078 13.75 3.67078C12.74 3.67078 11.9212 4.48954 11.9212 5.49953C11.9212 6.50952 12.74 7.32828 13.75 7.32828Z" fill="#284F60"/>
<path d="M8.25001 12.8283C9.26001 12.8283 10.0788 12.0095 10.0788 10.9995C10.0788 9.98954 9.26001 9.17078 8.25001 9.17078C7.24002 9.17078 6.42126 9.98954 6.42126 10.9995C6.42126 12.0095 7.24002 12.8283 8.25001 12.8283Z" fill="#284F60"/>
<path d="M13.75 12.8283C14.76 12.8283 15.5787 12.0095 15.5787 10.9995C15.5787 9.98954 14.76 9.17078 13.75 9.17078C12.74 9.17078 11.9212 9.98954 11.9212 10.9995C11.9212 12.0095 12.74 12.8283 13.75 12.8283Z" fill="#284F60"/>
<path d="M8.25001 18.3283C9.26001 18.3283 10.0788 17.5095 10.0788 16.4995C10.0788 15.4895 9.26001 14.6708 8.25001 14.6708C7.24002 14.6708 6.42126 15.4895 6.42126 16.4995C6.42126 17.5095 7.24002 18.3283 8.25001 18.3283Z" fill="#284F60"/>
<path d="M13.75 18.3283C14.76 18.3283 15.5787 17.5095 15.5787 16.4995C15.5787 15.4895 14.76 14.6708 13.75 14.6708C12.74 14.6708 11.9212 15.4895 11.9212 16.4995C11.9212 17.5095 12.74 18.3283 13.75 18.3283Z" fill="#284F60"/>
</svg>
