<svg width="39" height="45" viewBox="0 0 39 45" fill="none" xmlns="http://www.w3.org/2000/svg">
<path d="M11 23.0105C13.3869 23.0105 15.6761 22.0623 17.364 20.3745C19.0518 18.6866 20 16.3974 20 14.0105C20 11.6235 19.0518 9.33436 17.364 7.64654C15.6761 5.95871 13.3869 5.0105 11 5.0105C8.61305 5.0105 6.32387 5.95871 4.63604 7.64654C2.94821 9.33436 2 11.6235 2 14.0105C2 16.3974 2.94821 18.6866 4.63604 20.3745C6.32387 22.0623 8.61305 23.0105 11 23.0105ZM10.1562 17.1042V14.8542H7.90625C7.43867 14.8542 7.0625 14.4781 7.0625 14.0105C7.0625 13.5429 7.43867 13.1667 7.90625 13.1667H10.1562V10.9167C10.1562 10.4492 10.5324 10.073 11 10.073C11.4676 10.073 11.8438 10.4492 11.8438 10.9167V13.1667H14.0938C14.5613 13.1667 14.9375 13.5429 14.9375 14.0105C14.9375 14.4781 14.5613 14.8542 14.0938 14.8542H11.8438V17.1042C11.8438 17.5718 11.4676 17.948 11 17.948C10.5324 17.948 10.1562 17.5718 10.1562 17.1042Z" fill="#284F60"/>
</svg>
